<?xml version="1.0" encoding="utf-8"?>
<!-- Generator: Adobe Illustrator 17.0.0, SVG Export Plug-In . SVG Version: 6.00 Build 0)  -->
<!DOCTYPE svg PUBLIC "-//W3C//DTD SVG 1.1//EN" "http://www.w3.org/Graphics/SVG/1.1/DTD/svg11.dtd">
<svg version="1.1" id="Layer_1" xmlns="http://www.w3.org/2000/svg" xmlns:xlink="http://www.w3.org/1999/xlink" x="0px" y="0px"
	 width="512px" height="512px" viewBox="0 0 512 512" enable-background="new 0 0 512 512" xml:space="preserve">
<g>
	<path fill="#5C2A72" d="M142.477,399.16c2.595,3.079,3.893,6.532,3.893,10.358c-0.089,4.399-1.595,8.083-4.52,11.053
		c-2.926,2.969-6.478,4.453-10.656,4.453h-17.354c-3.079,0-4.882-0.835-5.41-2.507c-0.264-0.748-0.396-1.891-0.396-3.432v-36.619
		c0-1.056,0.032-1.825,0.099-2.31c0.066-0.483,0.274-1.056,0.627-1.716c0.615-1.188,2.331-1.781,5.146-1.781h16.627
		c4.047,0,7.434,1.408,10.161,4.223c2.859,2.86,4.289,6.291,4.289,10.293C144.984,394.079,144.148,396.741,142.477,399.16z
		 M134.691,408.859c0-1.056-0.122-1.891-0.363-2.508c-0.242-0.615-0.649-1.056-1.221-1.319c-0.88-0.352-2.111-0.528-3.694-0.528
		c-1.584,0-2.771-0.307-3.563-0.923s-1.188-1.881-1.188-3.794c0-1.914,0.406-3.178,1.221-3.794c0.813-0.616,2.166-0.924,4.058-0.924
		c1.759,0,2.814-0.462,3.167-1.386c0.133-0.483,0.198-1.275,0.198-2.376c0-1.099-0.363-1.869-1.089-2.309s-1.814-0.66-3.266-0.66
		h-9.237v25.007h10.82C133.306,413.346,134.691,411.85,134.691,408.859z"/>
	<path fill="#5C2A72" d="M162.964,383.885c-0.33,0.639-0.913,1.089-1.748,1.353c-0.837,0.265-1.947,0.396-3.332,0.396
		c-1.386,0-2.497-0.132-3.332-0.396c-0.837-0.264-1.419-0.726-1.749-1.385c-0.33-0.66-0.527-1.243-0.594-1.749
		c-0.066-0.505-0.099-1.264-0.099-2.276c0-1.012,0.032-1.771,0.099-2.276c0.066-0.505,0.253-1.066,0.561-1.683
		c0.616-1.188,2.331-1.781,5.146-1.781c2.771,0,4.442,0.594,5.015,1.781c0.352,0.66,0.562,1.243,0.627,1.749
		c0.066,0.506,0.1,1.265,0.1,2.276s-0.033,1.771-0.1,2.276C163.492,382.676,163.294,383.248,162.964,383.885z M152.11,396.125
		c0-1.012,0.032-1.771,0.099-2.276s0.253-1.089,0.561-1.749c0.616-1.144,2.331-1.716,5.146-1.716c2.111,0,3.606,0.375,4.487,1.122
		c0.747,0.616,1.144,1.562,1.188,2.837c0.043,0.44,0.066,1.079,0.066,1.914v23.094c0,1.012-0.033,1.771-0.1,2.276
		c-0.065,0.506-0.275,1.088-0.627,1.748c-0.572,1.145-2.266,1.716-5.08,1.716c-2.771,0-4.465-0.594-5.081-1.782
		c-0.308-0.659-0.494-1.23-0.561-1.715c-0.066-0.483-0.099-1.254-0.099-2.31V396.125z"/>
	<path fill="#5C2A72" d="M191.104,420.735c-1.672,2.2-4.333,3.3-7.983,3.3c-3.651,0-7.071-1.683-10.26-5.048
		c-3.19-3.365-4.784-7.291-4.784-11.777c0-4.487,1.605-8.424,4.816-11.812c3.211-3.387,6.73-5.08,10.558-5.08
		c1.495,0,2.858,0.275,4.091,0.824c1.23,0.551,2.078,1.057,2.54,1.518c0.462,0.462,0.825,0.892,1.089,1.287
		c0.132-1.231,0.582-2.166,1.353-2.805c0.77-0.637,2.013-0.956,3.728-0.956c1.716,0,2.97,0.132,3.762,0.396
		c0.791,0.264,1.353,0.716,1.683,1.353c0.329,0.639,0.527,1.199,0.594,1.683c0.065,0.484,0.099,1.232,0.099,2.243v27.316
		c0,5.059-1.76,9.139-5.278,12.24c-3.52,3.101-7.479,4.651-11.877,4.651c-3.344,0-6.532-0.814-9.567-2.441
		c-3.035-1.628-4.553-3.101-4.553-4.421c0-1.715,0.66-3.232,1.979-4.553c0.835-0.924,1.484-1.562,1.946-1.913
		c0.462-0.353,1-0.528,1.617-0.528c0.615,0,1.253,0.265,1.913,0.792c2.111,1.627,4.398,2.441,6.862,2.441
		c1.671,0,3.035-0.66,4.091-1.979s1.583-2.903,1.583-4.751V420.735z M179.36,407.242c0,1.431,0.561,2.717,1.683,3.86
		c1.121,1.145,2.484,1.716,4.091,1.716c1.604,0,2.936-0.583,3.991-1.749c1.056-1.165,1.584-2.441,1.584-3.827
		c0-1.385-0.506-2.683-1.518-3.893c-1.013-1.209-2.375-1.814-4.091-1.814s-3.102,0.594-4.157,1.781S179.36,405.813,179.36,407.242z"
		/>
	<path fill="#5C2A72" d="M276.021,378.573c0.352,0.66,0.561,1.254,0.627,1.782c0.065,0.527,0.099,1.298,0.099,2.309v36.62
		c0,3.035-0.836,4.816-2.507,5.345c-0.837,0.264-1.893,0.396-3.168,0.396s-2.287-0.109-3.035-0.33
		c-0.748-0.22-1.319-0.483-1.715-0.791c-0.396-0.308-0.704-0.748-0.924-1.32c-0.221-0.747-0.33-1.891-0.33-3.431v-22.104
		c-1.1,1.363-2.705,3.529-4.816,6.499c-2.111,2.969-3.454,4.828-4.025,5.575c-0.572,0.748-0.968,1.265-1.188,1.551
		c-0.221,0.286-0.759,0.683-1.616,1.188c-0.858,0.506-1.781,0.759-2.771,0.759c-0.989,0-1.892-0.231-2.705-0.693
		c-0.814-0.461-1.397-0.912-1.749-1.353l-0.527-0.726c-0.881-1.099-2.618-3.441-5.213-7.026c-2.596-3.585-4.003-5.51-4.223-5.773
		v22.235c0,1.013-0.033,1.771-0.099,2.276c-0.066,0.506-0.275,1.067-0.627,1.683c-0.66,1.188-2.375,1.781-5.146,1.781
		c-2.684,0-4.355-0.594-5.015-1.781c-0.353-0.615-0.561-1.188-0.627-1.716c-0.066-0.527-0.099-1.319-0.099-2.375v-36.62
		c0-1.011,0.032-1.77,0.099-2.276c0.066-0.505,0.274-1.089,0.627-1.748c0.659-1.144,2.375-1.716,5.146-1.716
		c1.188,0,2.21,0.144,3.068,0.429c0.857,0.287,1.418,0.584,1.683,0.891l0.396,0.396l14.978,19.662
		c7.478-9.897,12.471-16.43,14.979-19.597c0.747-1.188,2.518-1.781,5.312-1.781C273.7,376.792,275.405,377.386,276.021,378.573z"/>
	<path fill="#5C2A72" d="M286.711,394.673c3.694-3.431,7.917-5.146,12.668-5.146s8.951,1.705,12.603,5.113
		c3.65,3.41,5.477,7.753,5.477,13.032c0,3.651-0.946,6.895-2.837,9.731c-1.893,2.838-4.19,4.928-6.896,6.269
		c-2.705,1.343-5.51,2.013-8.412,2.013c-2.903,0-5.719-0.715-8.446-2.145c-2.728-1.429-5.025-3.54-6.895-6.334
		c-1.87-2.793-2.805-5.949-2.805-9.469C281.168,402.459,283.016,398.104,286.711,394.673z M294.958,412.455
		c1.407,1.078,2.838,1.616,4.289,1.616s2.903-0.549,4.354-1.649c1.452-1.099,2.178-2.727,2.178-4.883
		c0-2.154-0.683-3.761-2.046-4.816s-2.837-1.583-4.42-1.583c-1.584,0-3.059,0.55-4.421,1.649c-1.364,1.1-2.046,2.717-2.046,4.85
		C292.847,409.772,293.55,411.378,294.958,412.455z"/>
	<path fill="#5C2A72" d="M332.766,407.704c0,1.87,0.615,3.322,1.848,4.355c1.23,1.034,2.54,1.55,3.926,1.55s2.683-0.406,3.893-1.221
		c1.21-0.813,2.188-1.221,2.937-1.221c1.319,0,2.925,1.167,4.816,3.497c1.012,1.276,1.518,2.42,1.518,3.432
		c0,1.672-1.21,3.233-3.629,4.685c-2.507,1.76-5.587,2.64-9.237,2.64c-4.091,0-8.028-1.474-11.811-4.421
		c-1.805-1.407-3.277-3.288-4.421-5.642c-1.145-2.353-1.716-4.948-1.716-7.786c0-2.837,0.571-5.41,1.716-7.72
		c1.144-2.31,2.616-4.167,4.421-5.575c3.65-2.903,7.543-4.354,11.679-4.354c1.671,0,3.299,0.23,4.883,0.692
		c1.583,0.462,2.748,0.913,3.497,1.353l1.056,0.66c0.791,0.527,1.407,0.946,1.847,1.253c1.144,0.881,1.716,1.881,1.716,3.003
		c0,1.121-0.462,2.387-1.386,3.794c-1.583,2.419-3.101,3.629-4.553,3.629c-0.836,0-2.023-0.483-3.563-1.452
		c-0.792-0.747-1.925-1.121-3.398-1.121c-1.475,0-2.849,0.527-4.124,1.583C333.402,404.372,332.766,405.835,332.766,407.704z"/>
	<path fill="#5C2A72" d="M374.994,390.45c4.397,0,8.06,1.672,10.985,5.015c2.925,3.344,4.388,7.435,4.388,12.272v11.613
		c0,1.012-0.032,1.771-0.099,2.276s-0.275,1.088-0.627,1.748c-0.572,1.145-2.266,1.716-5.08,1.716c-2.684,0-4.355-0.571-5.015-1.716
		c-0.353-0.66-0.562-1.254-0.627-1.781c-0.066-0.528-0.1-1.32-0.1-2.376v-11.546c0-1.804-0.506-3.211-1.518-4.224
		c-1.012-1.011-2.299-1.518-3.859-1.518c-1.563,0-2.937,0.474-4.124,1.419c-1.188,0.946-1.87,2.013-2.045,3.2v12.801
		c0,1.012-0.033,1.771-0.1,2.276c-0.065,0.506-0.275,1.088-0.627,1.748c-0.572,1.145-2.266,1.716-5.08,1.716
		c-2.771,0-4.465-0.594-5.081-1.782c-0.308-0.659-0.494-1.23-0.561-1.715c-0.066-0.483-0.099-1.254-0.099-2.31v-39.457
		c0-1.012,0.032-1.771,0.099-2.276c0.066-0.505,0.253-1.066,0.561-1.683c0.616-1.188,2.331-1.781,5.146-1.781
		c2.771,0,4.442,0.594,5.015,1.781c0.352,0.66,0.562,1.243,0.627,1.749c0.066,0.506,0.1,1.265,0.1,2.276v14.582
		C369.473,391.793,372.046,390.45,374.994,390.45z"/>
	<path fill="#5C2A72" d="M406.631,383.885c-0.33,0.639-0.913,1.089-1.748,1.353c-0.837,0.265-1.947,0.396-3.332,0.396
		c-1.386,0-2.497-0.132-3.332-0.396c-0.837-0.264-1.419-0.726-1.749-1.385c-0.33-0.66-0.527-1.243-0.594-1.749
		c-0.066-0.505-0.099-1.264-0.099-2.276c0-1.012,0.032-1.771,0.099-2.276c0.066-0.505,0.253-1.066,0.561-1.683
		c0.616-1.188,2.331-1.781,5.146-1.781c2.771,0,4.442,0.594,5.015,1.781c0.352,0.66,0.562,1.243,0.627,1.749
		c0.066,0.506,0.1,1.265,0.1,2.276s-0.033,1.771-0.1,2.276C407.159,382.676,406.961,383.248,406.631,383.885z M395.777,396.125
		c0-1.012,0.032-1.771,0.099-2.276s0.253-1.089,0.561-1.749c0.616-1.144,2.331-1.716,5.146-1.716c2.111,0,3.606,0.375,4.487,1.122
		c0.747,0.616,1.144,1.562,1.188,2.837c0.043,0.44,0.066,1.079,0.066,1.914v23.094c0,1.012-0.033,1.771-0.1,2.276
		c-0.065,0.506-0.275,1.088-0.627,1.748c-0.572,1.145-2.266,1.716-5.08,1.716c-2.771,0-4.465-0.594-5.081-1.782
		c-0.308-0.659-0.494-1.23-0.561-1.715c-0.066-0.483-0.099-1.254-0.099-2.31V396.125z"/>
</g>
<g>
	<g>
		<g>
			<path fill="#5C2A72" d="M230.391,348.977c-34.666,0.302-67.891-11.105-99.03-31.08c-4.586-2.942-6.265-9.448-6.494-14.41
				c-0.784-16.979,0.847-31.957,7.832-47.741c10.01-22.618,26.158-39.742,47.279-52.29c2.41-1.432,2.966-2.864,2.982-5.577
				c0.116-20.151,3.97-39.789,9.116-59.155c6.388-24.044,14.748-47.326,28.715-68.21c3.265-4.882,7.161-9.212,11.815-12.794
				c9.628-7.409,19.102-5.186,24.063,5.91c5.33,11.921,5.581,24.704,4.978,37.406c-1.159,24.438-6.333,48.177-13.276,71.583
				c-0.985,3.322-2.668,4.958-5.908,5.674c-5.854,1.294-11.5,3.257-16.67,6.358c-2.248,1.348-5.387,2.657-3.36,6.077
				c1.746,2.947,4.461,1.664,6.7,0.365c5.356-3.109,11.238-4.796,17.071-6.664c2.62-0.839,2.719-2.026,4.462,0.484
				c15.764,22.707,38.041,39.943,64.851,47.748c16.42,4.781,32.704,6.026,49.406,2.373c2.518-0.551,4.171-1.226,6.987-2.696
				c2.429-1.383,3.723-1.069,5.088,1.187c7.572,12.523,15.139,25.067,20.005,38.949c1.742,4.97-1.07,9.075-4.344,12.454
				c-15.917,16.426-33.773,30.079-54.743,39.718c-16.015,7.362-31.917,14.921-49.174,18.812
				C270.611,347.549,252.13,348.837,230.391,348.977z"/>
		</g>
		<g>
			<path fill="#5C2A72" d="M344.286,233.498c-1.732,0-3.539-0.045-5.37-0.134c-18.091-0.217-34.175-7.926-48.866-16.227
				c-10.508-5.936-21.507-15.729-32.69-29.106c-4.481-5.361-5.22-10.511-2.396-16.703c6.691-14.677,14.154-30.554,23.381-47.202
				l0.217-0.402c0.788-1.474,2.427-4.54,5.885-4.54c0.465,0,0.936,0.061,1.4,0.18c3.43,0.883,4.13,4.344,4.467,6.008
				c0.037,0.182,0.072,0.359,0.11,0.527c2.415,10.751,4.825,20.785,7.376,31.407l1.329,5.546c2.946-1.802,5.896-3.758,8.752-5.651
				c1.471-0.974,2.941-1.948,4.419-2.909c5.127-3.33,8.716-5.876,13.184-9.148c2.646-1.938,4.88-2.84,7.031-2.84
				c1.648,0,4.675,0.588,6.554,4.501c2.561,4.652,4.449,9.797,6.276,14.774c1.033,2.814,2.008,5.473,3.088,8.02
				c0.495,1.168,1.059,2.32,1.656,3.539c0.766,1.564,1.555,3.174,2.221,4.882c2.247-1.226,4.909-2.725,7.739-4.318
				c16.443-9.26,23.899-13.13,27.508-13.13c1.43,0,2.379,0.54,2.925,0.994c1.966,1.638,1.999,4.028,0.167,12.18
				c-1.009,4.488-2.588,10.563-4.693,18.054c-3.834,13.652-8.173,27.596-9.524,31.566c-1.723,5.064-6.519,6.398-8.095,6.838
				C360.136,232.482,352.718,233.498,344.286,233.498z M283.814,128.962c-8.76,15.934-15.923,31.186-22.368,45.323
				c-1.66,3.642-1.313,5.958,1.379,9.178c10.632,12.718,20.97,21.96,30.729,27.473c13.88,7.843,29.001,15.126,45.508,15.307
				l0.135,0.004c9.98,0.481,18.083-0.365,27.233-2.909c2.535-0.706,3.011-1.541,3.259-2.269c3.188-9.366,12.605-41.049,14.75-52.289
				c-5.271,2.33-15.06,7.843-20.894,11.127c-2.955,1.664-5.729,3.226-8.046,4.487c-1.18,0.641-2.571,1.326-4.151,1.326
				c-1.74,0-4.1-0.793-5.472-4.576c-0.583-1.608-1.36-3.194-2.183-4.873c-0.613-1.252-1.248-2.547-1.819-3.894
				c-1.148-2.708-2.199-5.573-3.217-8.345c-1.747-4.76-3.553-9.681-5.876-13.88l-0.112-0.219c-0.117-0.251-0.216-0.404-0.282-0.492
				c-0.304,0.052-1.125,0.299-2.695,1.449c-4.568,3.346-8.244,5.954-13.511,9.374c-1.46,0.948-2.913,1.911-4.366,2.874
				c-2.993,1.983-6.089,4.035-9.236,5.951l-0.286,0.177c-1.049,0.654-2.634,1.643-4.506,1.643c-0.952,0-4.133-0.326-5.137-4.523
				l-1.779-7.418C288.436,148.815,286.127,139.199,283.814,128.962z"/>
		</g>
		<g>
			<path fill="#5C2A72" d="M302.227,154.806c-1.736-7.169-3.368-14.609-4.959-21.097c-0.384-1.565,0.107-3.016,0.682-4.355
				c9.264-21.599,17.812-38.597,33.566-56.407c3.971-4.489,8.25-8.645,13.556-11.587c10.325-5.727,19.232-2.126,22.77,9.179
				c2.833,9.053,2.537,18.408,1.624,27.561c-2.34,23.471-8.008,44.761-16.872,67.332c-2.166-4.409-3.076-7.611-4.876-11.391
				c-2.717-5.507-4.345-9.481-7.443-14.583c-2.63-4.331-6.527-4.884-10.709-2.019C317.75,144.588,314.137,147.315,302.227,154.806z"
				/>
		</g>
	</g>
	<g>
		<path fill="#5C2A72" d="M316.779,211.365c-10.806,0-19.598-8.791-19.598-19.598c0-10.806,8.791-19.598,19.598-19.598
			s19.598,8.791,19.598,19.598C336.377,202.574,327.585,211.365,316.779,211.365z M316.779,179.292
			c-6.879,0-12.475,5.596-12.475,12.475c0,6.879,5.596,12.475,12.475,12.475s12.475-5.596,12.475-12.475
			C329.254,184.888,323.658,179.292,316.779,179.292z"/>
	</g>
</g>
</svg>
